<svg width="20" height="28" viewBox="0 0 20 28" fill="none" xmlns="http://www.w3.org/2000/svg">
<path d="M9.94368 27.4815L2.40375 16.5926C-0.410417 12.8403 -0.0372837 6.59555 3.27924 3.27903C6.95987 -0.401604 12.9274 -0.401604 16.6081 3.27903C19.9246 6.59555 20.2978 12.8404 17.4836 16.5926L9.94368 27.4815Z" fill="#DA8598"/>
<path d="M15.0526 3.27886C13.1549 1.38361 10.5366 0.391577 7.85944 0.553507C7.83073 0.659764 7.76648 0.753007 7.67744 0.817757C7.09655 1.26543 6.40509 1.54701 5.6767 1.63249C5.3547 1.69095 5.04041 1.786 4.73996 1.91583C4.57918 2.59619 4.21108 3.20984 3.68651 3.67206C2.8434 4.4659 2.04337 5.30432 1.28994 6.18369C1.21382 6.36537 1.14765 6.55108 1.09176 6.73992C0.905491 7.52583 0.760569 8.32094 0.657593 9.122C0.721741 9.83441 0.741484 10.5439 0.748867 11.2625C0.702437 11.8756 0.704898 12.4914 0.756249 13.1041L0.756905 13.1054C0.784304 13.1805 0.804046 13.249 0.82778 13.3207C1.98327 15.86 3.32585 18.31 4.84436 20.6504C6.08866 22.4456 8.23471 24.4283 9.0396 26.5407L15.9281 16.5925C18.7423 12.8402 18.3691 6.59544 15.0526 3.27886Z" fill="#DA8598"/>
<path d="M10.0354 12.963C11.7537 12.963 13.1466 11.5701 13.1466 9.85184C13.1466 8.13362 11.7537 6.74072 10.0354 6.74072C8.31721 6.74072 6.92432 8.13362 6.92432 9.85184C6.92432 11.5701 8.31721 12.963 10.0354 12.963Z" fill="white"/>
<path d="M9.25755 12.963C10.5462 12.963 11.5909 11.5701 11.5909 9.85184C11.5909 8.13362 10.5462 6.74072 9.25755 6.74072C7.96887 6.74072 6.92419 8.13362 6.92419 9.85184C6.92419 11.5701 7.96887 12.963 9.25755 12.963Z" fill="white"/>
<path d="M3.47736 3.279C5.47301 1.27989 8.26153 0.283651 11.0721 0.565566C8.79506 0.701573 6.64672 1.66681 5.03294 3.279H5.03289C1.71637 6.59557 1.34318 12.8403 4.1574 16.5926L10.9196 26.3583L10.1418 27.4815L2.60187 16.5926C-0.212296 12.8403 0.160837 6.59557 3.47736 3.279Z" fill="white"/>
<path d="M10.0352 13.4816C8.03068 13.4816 6.40564 11.8566 6.40564 9.85202C6.40564 7.84745 8.03068 6.22241 10.0352 6.22241C12.0398 6.22241 13.6649 7.84745 13.6649 9.85202C13.6625 11.8556 12.0388 13.4792 10.0352 13.4816ZM10.0352 7.2594C8.60342 7.2594 7.44268 8.42014 7.44268 9.85197C7.44268 11.2838 8.60342 12.4445 10.0352 12.4445C11.4671 12.4445 12.6278 11.2838 12.6278 9.85197C12.6261 8.42085 11.4664 7.26104 10.0352 7.2594Z" fill="#202020"/>
<path d="M9.94364 28C9.7735 28 9.61414 27.9165 9.51729 27.7767L1.97753 16.8878C-0.99485 12.926 -0.562927 6.38783 2.91279 2.91266C4.77736 1.0477 7.30649 0 9.94364 0C12.5808 0 15.1099 1.0477 16.9745 2.9126C20.4503 6.38777 20.8822 12.926 17.8981 16.9035L10.37 27.7767C10.2731 27.9165 10.1138 28 9.94364 28ZM9.94364 1.03704C7.58026 1.0307 5.31253 1.97006 3.64599 3.64585C0.509057 6.78229 0.12269 12.687 2.81856 16.2817L9.94364 26.5706L17.0571 16.2974C19.7646 12.687 19.3782 6.78229 16.2413 3.64585C14.5747 1.97006 12.307 1.0307 9.94364 1.03704Z" fill="#202020"/>
</svg>
