<svg width="24" height="24" viewBox="0 0 24 24" fill="none" xmlns="http://www.w3.org/2000/svg">
<path fill-rule="evenodd" clip-rule="evenodd" d="M12 11.9611C10.8081 11.9611 9.83789 10.9855 9.83789 9.78717C9.83789 8.58882 10.8081 7.61328 12 7.61328C13.1919 7.61328 14.1621 8.58882 14.1621 9.78717C14.1621 10.9855 13.1919 11.9611 12 11.9611ZM12 6.52648C10.2127 6.52648 8.75684 7.98932 8.75684 9.78731C8.75684 11.5853 10.2127 13.0482 12 13.0482C13.7873 13.0482 15.2431 11.5853 15.2431 9.78731C15.2431 7.98932 13.7873 6.52648 12 6.52648ZM16.8953 14.9654L11.9999 19.8874L7.10456 14.9654C4.40554 12.2516 4.40554 7.83589 7.10456 5.12215C8.45407 3.76437 10.2261 3.08594 11.9999 3.08594C13.7728 3.08594 15.5458 3.76528 16.8953 5.12215C19.5943 7.83589 19.5943 12.2516 16.8953 14.9654ZM17.6602 4.35324C14.5387 1.21559 9.46133 1.21559 6.3398 4.35324C3.22007 7.49089 3.22007 12.5968 6.3398 15.7345L11.618 21.0406C11.7234 21.1475 11.8622 21.2 12 21.2C12.1378 21.2 12.2766 21.1475 12.382 21.0406L17.6602 15.7345C20.7799 12.5968 20.7799 7.49089 17.6602 4.35324Z" fill="#202020"/>
</svg>
