<svg width="24" height="24" viewBox="0 0 24 24" fill="none" xmlns="http://www.w3.org/2000/svg">
<path fill-rule="evenodd" clip-rule="evenodd" d="M19.0641 8.69799C19.2462 8.94871 19.1886 9.29821 18.9339 9.47809L12.8987 13.7598C12.6364 13.9471 12.327 14.0403 12.0185 14.0403C11.7118 14.0403 11.4043 13.948 11.142 13.7635L5.06718 9.47903C4.8134 9.30008 4.75396 8.95057 4.9351 8.69893C5.11719 8.44728 5.47098 8.38856 5.72476 8.56938L11.7986 12.8529C11.9298 12.9452 12.1062 12.9461 12.2383 12.852L18.2744 8.57031C18.5282 8.38856 18.882 8.44821 19.0641 8.69799ZM20.8688 16.7436C20.8688 17.4631 20.2754 18.0493 19.548 18.0493H4.45292C3.72458 18.0493 3.1321 17.4631 3.1321 16.7436V7.4234C3.1321 6.70388 3.72458 6.11857 4.45292 6.11857H19.548C20.2754 6.11857 20.8688 6.70388 20.8688 7.4234V16.7436ZM19.548 5H4.45295C3.10005 5 2 6.08766 2 7.42325V16.7434C2 18.0799 3.10005 19.1667 4.45295 19.1667H19.548C20.8999 19.1667 22 18.0799 22 16.7434V7.42325C22 6.08766 20.8999 5 19.548 5Z" fill="#202020"/>
</svg>
