<svg enable-background="new 0 0 130 138.4" viewBox="0 0 130 138.4" xmlns="http://www.w3.org/2000/svg"><path d="m118.9 105-.7-.1c-.7-.1-1.3-.4-1.9-.8l-.5-.3.7-1.1.5.3c.5.3.9.5 1.5.6l.7.1zm2.2-.1-.4-1.2.6-.2c.5-.2 1-.5 1.4-.8l.5-.4.8 1-.5.4c-.5.5-1.1.8-1.8 1zm-6.6-2.7-.3-.6c-.3-.6-.5-1.3-.6-2l-.1-.7 1.3-.1.1.7c.1.5.2 1.1.5 1.6l.3.6zm10.7-.6-1.2-.4.2-.6c.2-.5.3-1.1.3-1.6v-.7h1.3v.7h-.7.7c0 .7-.1 1.4-.3 2.1zm-10.2-4.2-1.1-.5.3-.6c.3-.6.7-1.2 1.2-1.7l.5-.5.9.9-.5.5c-.4.4-.7.8-.9 1.3zm9.1-.6-.3-.5c-.3-.5-.7-.9-1.1-1.2l-.5-.4.8-1 .5.4c.5.4 1 .9 1.4 1.5l.3.5zm-6.1-2.5-.3-1.3.6-.1c.7-.1 1.4-.2 2.1-.1l.7.1-.1 1.3-.7-.1c-.5-.1-1.1 0-1.6.1zm-99.7-15.8v-1.3h.7c.6 0 1.2-.1 1.8-.1l.7-.1.2 1.3-.7.1c-.7.1-1.3.1-1.9.1zm-2-.1-.7-.1c-.7-.1-1.3-.2-1.9-.4l-.6-.1.3-1.3.6.1c.6.1 1.2.3 1.8.3l.7.1zm7.1-.6-.4-1.2.6-.2c.6-.2 1.1-.4 1.7-.7l.6-.3.5 1.1-.6.3c-.6.3-1.2.5-1.8.7zm-12.2-.6-.6-.3c-.6-.3-1.2-.6-1.7-.9l-.5-.3.6-1.1.6.4c.5.3 1.1.6 1.6.8l.6.3zm16.9-1.6-.7-1.1.5-.3c.5-.3 1-.7 1.5-1.1l.5-.4.8.9-.5.4c-.5.4-1 .8-1.5 1.2zm-21.3-1.1-.5-.4c-.5-.4-.9-.9-1.4-1.3l-.5-.5.9-.9.5.5c.4.5.9.9 1.3 1.3l.5.4zm25.2-2.3-1-.8.4-.5c.4-.5.7-.9 1.1-1.5l.3-.5 1.1.7-.3.5c-.3.5-.7 1.1-1.1 1.6zm-28.7-1.5-.3-.5c-.3-.5-.7-1.1-.9-1.7l-.3-.6 1.1-.6.3.6c.2.6.5 1.1.8 1.6l.3.5zm31.5-2.8-1.2-.5.3-.6c.2-.5.5-1.1.6-1.7l.2-.6 1.2.3-.2.6c-.2.7-.4 1.3-.7 1.9zm-33.9-1.8-.2-.6c-.2-.6-.3-1.3-.5-1.9l-.1-.7 1.3-.2.1.7c.1.6.3 1.2.4 1.7l.2.6zm35.4-3.2-1.3-.2.1-.7c.1-.6.1-1.2.1-1.8v-.7h1.3v.7c0 .7 0 1.3-.1 1.9zm-35-2h-1.3v-.7c0-.7 0-1.3.1-1.9l.1-.7 1.3.1-.1.7c-.1.6-.1 1.2-.1 1.8v.7zm33.7-3.1-.1-.7c-.1-.6-.3-1.2-.4-1.7l-.2-.6 1.2-.3.2.6c.2.6.3 1.3.5 1.9l.1.7zm-33.2-1.6-1.2-.3.2-.6c.2-.7.4-1.3.7-1.9l.3-.6 1.2.5-.3.6c-.2.5-.5 1.1-.6 1.7zm31.8-3-.3-.6c-.3-.5-.6-1.1-.9-1.6l-.3-.5 1.1-.7.3.5c.3.5.7 1.1 1 1.7l.3.6zm-30-1.5-1.1-.7.3-.5c.3-.5.7-1.1 1.1-1.6l.4-.5 1 .8-.3.4c-.4.5-.7.9-1.1 1.5zm27.4-2.6-.5-.5c-.4-.5-.9-.9-1.3-1.3l-.4-.3.8-.9.5.4c.5.4.9.9 1.4 1.3l.5.5zm-24.4-1.2-.8-.9.5-.4c.5-.4 1-.8 1.5-1.2l.5-.3.7 1.1-.5.3c-.5.3-1 .7-1.5 1.1zm20.8-1.9-.5-.3c-.5-.3-1.1-.6-1.6-.8l-.6-.3.5-1.1.6.3c.6.3 1.2.6 1.7.9l.5.3zm-16.8-.9-.6-1.1.6-.3c.6-.3 1.2-.5 1.8-.7l.6-.2.4 1.2-.6.2c-.6.2-1.1.4-1.7.7zm12.4-1.1-.6-.1c-.6-.1-1.2-.3-1.8-.3l-.7-.1.2-1.3.7.1c.7.1 1.3.2 1.9.4l.6.1zm-7.8-.4-.2-1.3.7-.1c.7-.1 1.3-.1 1.9-.2h.7l.1 1.3h-.7c-.6 0-1.2.1-1.8.1zm96.9-11.9-.7-.1c-.7-.1-1.3-.3-1.9-.5l-.6-.2.5-1.2.6.2c.5.2 1.1.3 1.7.4l.7.1zm2-.1-.3-1.3.7-.1c.6-.1 1.1-.3 1.6-.5l.6-.3.5 1.1-.6.3c-.6.3-1.3.5-1.9.7zm-7-1.8-.5-.4c-.5-.5-.9-.9-1.4-1.5l-.4-.5 1-.8.4.5c.3.5.7.9 1.2 1.3l.5.4zm11.8-.4-.9-.9.5-.5c.4-.4.8-.9 1.1-1.3l.3-.5 1.1.7-.3.5c-.3.6-.8 1.1-1.3 1.6zm-14.9-3.7-.2-.6c-.2-.7-.3-1.3-.3-1.9v-.7l1.3-.1v.7c0 .6.1 1.1.3 1.7l.2.6zm17.7-.8-1.3-.3.1-.7c.1-.6.2-1.1.2-1.7v-.7h1.3v.7c0 .7-.1 1.3-.2 2zm-16.9-4.2-1.2-.3.2-.6c.2-.7.5-1.3.8-1.9l.3-.6 1.1.6-.3.6c-.3.5-.5 1.1-.7 1.6zm15.7-.6-.2-.6c-.2-.5-.5-1.1-.8-1.5l-.3-.5 1.1-.7.3.5c.3.6.7 1.1.9 1.8l.2.6zm-13.6-3.4-.8-.9.5-.4c.5-.5 1.1-.8 1.6-1.1l.6-.3.6 1.1-.6.3c-.5.3-1 .6-1.4 1zm11.1-.4-.5-.4c-.5-.3-.9-.7-1.5-.9l-.6-.3.5-1.1.6.3c.6.3 1.2.6 1.7 1l.5.4zm-7.1-1.9-.2-1.3.7-.1c.7-.1 1.3-.1 2-.1h.7l-.1 1.3h-.7c-.6 0-1.1 0-1.7.1z" fill="#a4a4a4"/><path d="m117.9 116.4h-104.7l6.8-91.3h91.3c.2 0 .2 0 6.6 91.3z" fill="#fff"/><path d="m117.9 118h-104.7c-.5 0-.9-.2-1.2-.5s-.5-.8-.4-1.2l6.9-91.3c.1-.8.8-1.5 1.6-1.5h91.3c.8 0 1.5.7 1.6 1.5l6.4 91.3c0 .5-.1.9-.4 1.2-.2.3-.7.5-1.1.5zm-102.9-3.1h101.2l-6.2-88.1h-88.5zm75.8-55.5h-3.2v-34.1c0-12.2-9.9-22.1-22.1-22.1s-22.1 9.9-22.1 22.1v34.2h-3.2v-34.2c.1-13.9 11.4-25.3 25.3-25.3s25.3 11.3 25.3 25.3z" fill="#a4a4a4"/><circle cx="89.2" cy="57.8" fill="#a0a0a0" r="6.1"/><circle cx="42.1" cy="57.8" fill="#a0a0a0" r="6.1"/><path d="m24.2 114.9h-9.3l6.6-88.2h9.3z" fill="#f2f2f2"/><path d="m92.46 8.7 6.65-6.64.93.92-6.65 6.65zm-.09-5.78.93-.92 6.64 6.65-.92.9zm-89.41 85.23 4.52-4.53.92.92-4.52 4.53zm-.06-3.61.9-.92 4.53 4.52-.92.92zm122.58 4.76 3.6-3.6.92.9-3.6 3.6zm-.03-2.7.92-.93 3.6 3.6-.92.92z" fill="#a4a4a4"/><path d="m55 73.6c.7-.7 4.8-4.5 11-4.3 5.6.1 9.3 3.5 10.1 4.3" fill="#fff"/><path d="m55 75.2c-.4 0-.8-.1-1.1-.5-.6-.7-.6-1.6 0-2.3 1.2-1.2 5.6-5 12.2-4.8 5.8.2 9.8 3.4 11.2 4.8.7.6.7 1.6 0 2.3-.6.7-1.6.7-2.3 0-1.1-1.1-4.3-3.7-9-3.9-5.3-.1-8.8 2.9-9.8 3.9-.4.3-.8.5-1.2.5z" fill="#a4a4a4"/><ellipse cx="65.9" cy="135.1" fill="#eaeaea" rx="41.7" ry="3.3"/></svg>