<svg width="24" height="24" viewBox="0 0 24 24" fill="none" xmlns="http://www.w3.org/2000/svg">
<path d="M5.26611 9.765C5.734 8.34945 6.63697 7.11781 7.84623 6.2458C9.05548 5.37378 10.5092 4.90594 12.0001 4.909C13.6901 4.909 15.2181 5.509 16.4181 6.491L19.9101 3C17.7821 1.145 15.0551 0 12.0001 0C7.27011 0 3.19811 2.698 1.24011 6.65L5.26611 9.765Z" fill="#E72626"/>
<path d="M16.0402 18.0131C14.9502 18.7161 13.5662 19.0911 12.0002 19.0911C10.5153 19.0941 9.06699 18.63 7.86042 17.7644C6.65385 16.8988 5.75012 15.6757 5.27718 14.2681L1.23718 17.3351C2.22843 19.3414 3.76245 21.0295 5.66501 22.2076C7.56756 23.3858 9.76239 24.0068 12.0002 24.0001C14.9332 24.0001 17.7352 22.9571 19.8342 21.0001L16.0412 18.0131H16.0402Z" fill="#34A853"/>
<path d="M19.8341 21C22.0291 18.952 23.4541 15.904 23.4541 12C23.4541 11.29 23.3451 10.527 23.1821 9.81799H12.0001V14.455H18.4361C18.1191 16.014 17.2661 17.221 16.0411 18.013L19.8341 21Z" fill="#4A90E2"/>
<path d="M5.27712 14.268C5.03247 13.5369 4.90819 12.771 4.90912 12C4.90912 11.218 5.03412 10.467 5.26612 9.76502L1.24012 6.65002C0.416494 8.31271 -0.00807994 10.1445 0.000116455 12C0.000116455 13.92 0.445116 15.73 1.23712 17.335L5.27712 14.268Z" fill="#FBBC05"/>
</svg>
