<svg width="20" height="20" viewBox="0 0 20 20" fill="none" xmlns="http://www.w3.org/2000/svg">
<path d="M15.7098 0.790701C15.1108 0.589701 14.4808 0.500701 13.8498 0.500701C12.4598 0.490701 11.1108 0.950701 9.99977 1.7997C9.90977 1.7307 9.79977 1.6697 9.69977 1.6107C9.59977 1.5497 9.41977 1.4007 9.26977 1.3207L8.88977 1.1507C8.68977 1.0407 8.48077 0.960701 8.25977 0.889701C8.23977 0.870701 8.20977 0.849701 8.16977 0.830701H8.11077C7.51977 0.629701 6.90977 0.519701 6.27977 0.500701H6.16977C5.88977 0.500701 5.61077 0.519701 5.32977 0.560701H5.20977C4.90977 0.599701 4.61077 0.669701 4.32077 0.769701C0.589773 1.9907 -0.740228 6.0407 0.389772 9.5807C1.02977 11.3897 2.06077 13.0307 3.40077 14.3797C5.34977 16.2597 7.48077 17.9197 9.76977 19.3397L10.0298 19.5007L10.2798 19.3497C12.5608 17.9197 14.6798 16.2597 16.6108 14.3897C17.9598 13.0407 18.9898 11.3897 19.6198 9.5807C20.7308 6.0407 19.4008 1.9907 15.7098 0.790701Z" fill="#202020"/>
</svg>
