<svg width="19" height="20" viewBox="0 0 19 20" fill="none" xmlns="http://www.w3.org/2000/svg">
<path fill-rule="evenodd" clip-rule="evenodd" d="M18.9308 9.73531C18.903 9.6759 18.8704 9.61946 18.8219 9.56995L15.3057 6.05096C15.0741 5.81927 14.6981 5.82026 14.4655 6.04997C14.2339 6.28266 14.2339 6.65892 14.4645 6.89061L16.9782 9.40658H6.53162C6.20405 9.40658 5.93784 9.67293 5.93784 10.0007C5.93784 10.3284 6.20405 10.5938 6.53162 10.5938H16.9574L14.4437 13.1097C14.2112 13.3414 14.2112 13.7177 14.4437 13.9494C14.5595 14.0652 14.711 14.1236 14.8634 14.1236C15.0148 14.1236 15.1662 14.0652 15.282 13.9494L18.7754 10.4551C18.91 10.3452 19 10.1858 19 10.0007C19 9.90363 18.9723 9.8165 18.9308 9.73531ZM12.0726 14.4562V15.4463C12.0726 17.9573 10.0309 20 7.52123 20H1.58342C0.710558 20 0 19.2891 0 18.4168V1.58424C0 0.710926 0.710558 0 1.58342 0H7.52123C10.0309 0 12.0726 2.04268 12.0726 4.55468V5.54483C12.0726 5.87257 11.8073 6.13793 11.4798 6.13793C11.1522 6.13793 10.886 5.87257 10.886 5.54483V4.55468C10.886 2.69815 9.37679 1.18719 7.52123 1.18719H1.58342C1.36866 1.18719 1.18657 1.36937 1.18657 1.58424V18.4168C1.18657 18.6306 1.36866 18.8128 1.58342 18.8128H7.52123C9.37679 18.8128 10.886 17.3028 10.886 15.4463V14.4562C10.886 14.1284 11.1522 13.8621 11.4798 13.8621C11.8073 13.8621 12.0726 14.1284 12.0726 14.4562Z" fill="#B3B3B3"/>
</svg>
