<svg width="42" height="27" viewBox="0 0 42 27" fill="none" xmlns="http://www.w3.org/2000/svg">
<path d="M17.9462 23.4214C15.0645 25.5567 12.543 26.2685 10.0215 25.9126C7.14653 25.5068 1.37632 22.7096 1.01611 21.6419C0.655894 20.5742 6.41934 17.3712 10.0215 17.3712C13.6236 17.3712 19.3871 19.8624 20.4677 20.9301C21.5484 21.9978 26.5914 25.9126 31.9946 25.2008C36.3172 24.6314 38.4785 23.0655 41 20.9301C38.1183 18.0829 36.3172 17.727 33.0753 17.3712" stroke="#202020" stroke-linecap="round"/>
<path d="M8.94083 14.8799C8.46055 14.0495 7.49997 12.3886 7.13976 10.6092C6.85158 9.18561 6.77954 7.6434 6.77954 7.05024C6.77954 6.95108 9.66126 6.69435 12.9032 8.47382C14.4776 9.33801 17.2258 10.965 18.6666 13.4563C20.4677 16.5704 20.8279 20.2183 20.8279 20.9301" stroke="#202020" stroke-linecap="round"/>
<path d="M16.5642 8.14883C16.8071 7.22298 17.2928 5.37124 18.2921 3.84869C19.0916 2.63062 20.1297 1.47668 20.5488 1.05197C20.6189 0.980965 22.8636 2.78468 23.9276 6.2948C24.4444 7.99947 25.2625 11.0599 24.534 13.8375C23.6233 17.3094 21.3038 20.1699 20.8009 20.6795" stroke="#202020" stroke-linecap="round"/>
<path d="M26.9979 9.00362C27.8276 8.51088 29.487 7.52539 31.2796 7.13031C32.7138 6.81424 34.2728 6.70903 34.873 6.69594C34.9733 6.69375 35.2967 9.53454 33.5676 12.7761C32.7279 14.3503 31.1422 17.1008 28.6531 18.579C25.5417 20.4268 21.8584 20.8631 21.1381 20.8788" stroke="#202020" stroke-linecap="round"/>
</svg>
