<svg width="24" height="24" viewBox="0 0 24 24" fill="none" xmlns="http://www.w3.org/2000/svg">
<g clip-path="url(#clip0)">
<path d="M23.5 8.49997H0.500016C0.224016 8.49997 0 8.72399 0 8.99999C0 9.276 0.224016 9.50002 0.500016 9.50002H23.5C23.776 9.50002 24 9.276 24 8.99999C24 8.72399 23.776 8.49997 23.5 8.49997Z" fill="#202020"/>
<path d="M17.625 15.5H0.375011C0.168011 15.5 0 15.724 0 16C0 16.276 0.168011 16.5 0.375011 16.5H17.625C17.832 16.5 18 16.276 18 16C18 15.724 17.832 15.5 17.625 15.5Z" fill="#202020"/>
</g>
<defs>
<clipPath id="clip0">
<rect width="24" height="24" fill="white"/>
</clipPath>
</defs>
</svg>
