<svg width="20" height="21" viewBox="0 0 20 21" fill="none" xmlns="http://www.w3.org/2000/svg">
<path fill-rule="evenodd" clip-rule="evenodd" d="M17.3248 10.2787L16.4616 5.33936C17.6183 5.41073 18.6212 6.26822 18.8297 7.46357C19.0382 8.65986 18.3853 9.81333 17.3248 10.2787ZM16.5767 14.6663C16.4804 14.7472 16.2229 14.9195 15.87 14.7901V14.7891L12.6518 13.589C12.0178 13.353 11.3479 13.2331 10.6752 13.2331C10.346 13.2331 10.0148 13.2616 9.68742 13.3197L4.21623 14.2933C3.14161 14.4827 2.09341 13.7527 1.90189 12.6582L1.16221 8.4241C0.970683 7.32963 1.6981 6.28275 2.78309 6.08956L8.25523 5.11596C9.24776 4.93894 10.1799 4.4983 10.947 3.84067L13.5651 1.60226C13.85 1.35767 14.1538 1.43095 14.2708 1.47378C14.3878 1.5166 14.668 1.65555 14.7331 2.02767L15.2303 4.87328C15.2313 4.88089 15.2284 4.8885 15.2294 4.89612C15.2313 4.90468 15.2369 4.91134 15.2388 4.91991L16.3181 11.0955C16.3191 11.1041 16.3163 11.1117 16.3181 11.1193C16.3191 11.1279 16.3247 11.1346 16.3266 11.1431L16.8238 13.9868C16.888 14.3589 16.6729 14.5864 16.5767 14.6663ZM8.22409 19.1263C7.59574 19.2376 6.97305 18.8084 6.85983 18.1631L6.32111 15.0786L8.6279 14.6685L9.16756 17.752C9.27983 18.3972 8.85622 19.014 8.22409 19.1263ZM19.9439 7.26582C19.6269 5.44996 18.039 4.18134 16.2625 4.20132L15.8483 1.82967C15.7313 1.16347 15.285 0.628613 14.6548 0.399251C14.0246 0.16989 13.3434 0.293612 12.833 0.731397L10.2158 2.96981C9.59968 3.49611 8.85339 3.85014 8.05805 3.99195L2.58591 4.96459C0.886715 5.26724 -0.252056 6.90798 0.0479682 8.622L0.78765 12.8562C1.08673 14.5702 2.7095 15.7208 4.41341 15.4181L5.20593 15.2763L5.7456 18.3608C5.94373 19.4896 6.92116 20.2861 8.02031 20.2861C8.15239 20.2861 8.28637 20.2747 8.42128 20.2509C9.66855 20.0282 10.5035 18.8186 10.2818 17.5538L9.74309 14.4693L9.88367 14.4446C10.6809 14.3037 11.5017 14.3779 12.2593 14.6606L15.4775 15.8607C15.6907 15.9397 15.9087 15.9787 16.1257 15.9787C16.5484 15.9787 16.9616 15.8302 17.3022 15.5438C17.8164 15.1107 18.0541 14.455 17.9381 13.7888L17.5239 11.4181C19.1976 10.8252 20.2619 9.08168 19.9439 7.26582Z" fill="#B3B3B3"/>
</svg>
