<svg width="24" height="24" viewBox="0 0 24 24" fill="none" xmlns="http://www.w3.org/2000/svg">
<path fill-rule="evenodd" clip-rule="evenodd" d="M15.8501 9.66741C15.4121 10.0959 14.6477 10.0951 14.2106 9.66741C13.9916 9.45317 13.8705 9.16831 13.8705 8.86539C13.8705 8.56248 13.9916 8.27762 14.2106 8.06338C14.4296 7.84914 14.7207 7.73143 15.0303 7.73143C15.3399 7.73143 15.6311 7.84914 15.8501 8.06338C16.0691 8.27762 16.1894 8.56248 16.1894 8.86539C16.1894 9.16831 16.0691 9.45317 15.8501 9.66741ZM13.5296 7.39717C12.7026 8.20703 12.7026 9.52384 13.5296 10.3337C13.9435 10.7378 14.4865 10.9403 15.0303 10.9403C15.5734 10.9403 16.1172 10.7378 16.5311 10.3337C17.3581 9.52384 17.3581 8.20703 16.5311 7.39717C15.7033 6.58888 14.3566 6.5881 13.5296 7.39717ZM17.4992 13.7293C16.5054 14.7016 15.1843 15.2376 13.779 15.2376C13.0066 15.2376 12.2598 15.0751 11.5789 14.7683C11.5476 14.7487 11.5147 14.7322 11.4778 14.7196C11.4746 14.7189 11.4722 14.7181 11.469 14.7173C10.9532 14.4701 10.4768 14.1381 10.0589 13.7293C9.67064 13.3502 9.3514 12.9218 9.10516 12.4588C9.08992 12.4117 9.06666 12.3662 9.03618 12.3246C8.69688 11.6364 8.51721 10.8767 8.51721 10.0896C8.51721 8.71474 9.06505 7.42226 10.0589 6.44917C11.0527 5.47766 12.3737 4.94167 13.779 4.94167C15.1843 4.94167 16.5054 5.47766 17.4992 6.44917C19.551 8.45656 19.551 11.7227 17.4992 13.7293ZM10.6356 15.6496L9.36663 16.0043C9.21584 16.0459 9.09632 16.1565 9.04499 16.3009L8.53725 17.7127L7.09987 18.2039C6.96031 18.2518 6.85202 18.3585 6.8039 18.4943L6.32985 19.8299L4.29971 20.0567C4.17459 20.0716 4.09036 20.0088 4.05186 19.9704C4.01336 19.9327 3.9508 19.8511 3.96443 19.7279L4.20667 17.6052L8.53404 13.3714C8.77387 13.7379 9.05622 14.0809 9.37786 14.3955C9.78453 14.7934 10.2377 15.1293 10.7254 15.3985L10.6356 15.6496ZM18.1802 5.78373C17.0043 4.63329 15.4418 4 13.779 4C12.1163 4 10.5538 4.63329 9.37788 5.78373C8.20199 6.93417 7.55469 8.46286 7.55469 10.0896C7.55469 10.9333 7.72955 11.751 8.06162 12.5027L3.40699 17.0566C3.32998 17.132 3.28106 17.2309 3.26902 17.3368L3.00834 19.6228C2.96422 19.9987 3.09657 20.3683 3.37169 20.6367C3.61152 20.8713 3.93076 21 4.26444 21C4.31257 21 4.36069 20.9976 4.40882 20.9922L6.73975 20.7316C6.92423 20.7112 7.07904 20.5888 7.14 20.4185L7.6365 19.0185L9.07308 18.5273C9.21104 18.4802 9.31933 18.3742 9.36826 18.2393L9.86957 16.8432L11.1393 16.4885C11.2893 16.4461 11.4096 16.3355 11.4618 16.1911L11.6029 15.7971C12.2895 16.0475 13.0243 16.1785 13.779 16.1785C15.4418 16.1785 17.0043 15.5452 18.1802 14.3956C20.6066 12.0217 20.6066 8.15838 18.1802 5.78373Z" fill="#202020"/>
</svg>
