<svg width="24" height="24" viewBox="0 0 24 24" fill="none" xmlns="http://www.w3.org/2000/svg">
<circle opacity="0.4" cx="12" cy="12" r="10" fill="#202020"/>
<path d="M14.8154 12.5655C14.7871 12.5945 14.6805 12.7185 14.5811 12.8205C13.9985 13.462 12.4788 14.512 11.6834 14.8325C11.5626 14.884 11.2572 14.993 11.094 15C10.9377 15 10.7886 14.964 10.6464 14.891C10.4691 14.789 10.3268 14.6285 10.2489 14.439C10.1987 14.3075 10.1208 13.914 10.1208 13.907C10.0429 13.4765 10 12.777 10 12.004C10 11.2675 10.0429 10.5965 10.1067 10.1595C10.114 10.1525 10.1919 9.66348 10.2772 9.49598C10.4335 9.18998 10.7389 8.99998 11.0658 8.99998H11.094C11.3069 9.00748 11.7545 9.19748 11.7545 9.20448C12.5071 9.52548 13.9917 10.524 14.5884 11.1875C14.5884 11.1875 14.7565 11.358 14.8295 11.4645C14.9435 11.6175 15 11.807 15 11.9965C15 12.208 14.9362 12.405 14.8154 12.5655Z" fill="#202020"/>
</svg>
