<svg width="24" height="24" viewBox="0 0 24 24" fill="none" xmlns="http://www.w3.org/2000/svg">
<path d="M12 2C9.09223 2 6.72656 4.36566 6.72656 7.27344C6.72656 10.1812 9.09223 12.5469 12 12.5469C14.9078 12.5469 17.2734 10.1812 17.2734 7.27344C17.2734 4.36566 14.9078 2 12 2ZM12 11.375C9.7384 11.375 7.89844 9.53504 7.89844 7.27344C7.89844 5.01184 9.7384 3.17188 12 3.17188C14.2616 3.17188 16.1016 5.01184 16.1016 7.27344C16.1016 9.53504 14.2616 11.375 12 11.375Z" fill="#202020"/>
<path d="M18.5612 15.992C17.1174 14.5261 15.2035 13.7188 13.1719 13.7188H10.8281C8.79656 13.7188 6.88258 14.5261 5.43883 15.992C4.00215 17.4507 3.21094 19.3763 3.21094 21.4141C3.21094 21.7377 3.47328 22 3.79688 22H20.2031C20.5267 22 20.7891 21.7377 20.7891 21.4141C20.7891 19.3763 19.9979 17.4507 18.5612 15.992ZM4.40859 20.8281C4.70215 17.5045 7.46918 14.8906 10.8281 14.8906H13.1719C16.5308 14.8906 19.2979 17.5045 19.5914 20.8281H4.40859Z" fill="#202020"/>
</svg>
