<svg width="20" height="20" viewBox="0 0 20 20" fill="none" xmlns="http://www.w3.org/2000/svg">
<path fill-rule="evenodd" clip-rule="evenodd" d="M12.9242 7.59285C12.9242 9.02971 11.9091 10.2184 10.5656 10.4826V11.8581C10.5656 12.1704 10.3118 12.4233 9.99953 12.4233C9.68725 12.4233 9.43441 12.1704 9.43441 11.8581V9.97127C9.43441 9.65899 9.68725 9.4052 9.99953 9.4052C10.9883 9.4052 11.793 8.60139 11.793 7.61267C11.793 6.60413 10.9883 5.80032 9.99953 5.80032C9.01175 5.80032 8.20699 6.60413 8.20699 7.59285C8.20699 7.90608 7.95321 8.16835 7.64093 8.16835C7.32865 8.16835 7.07581 7.92589 7.07581 7.61267V7.59285C7.07581 5.98051 8.38719 4.66819 9.99953 4.66819C11.6119 4.66819 12.9242 5.98051 12.9242 7.59285ZM10.7543 14.0101C10.7543 14.428 10.4165 14.7667 9.99953 14.7667C9.58253 14.7667 9.24572 14.428 9.24572 14.0101C9.24572 13.5922 9.58253 13.2544 9.99953 13.2544C10.4165 13.2544 10.7543 13.5922 10.7543 14.0101ZM9.99952 18.8688C5.10967 18.8688 1.13118 14.8903 1.13118 10.0004C1.13118 5.11059 5.10967 1.1321 9.99952 1.1321C14.8903 1.1321 18.8688 5.11059 18.8688 10.0004C18.8688 14.8903 14.8903 18.8688 9.99952 18.8688ZM9.99953 0C4.48606 0 0 4.48606 0 10.0005C0 15.5139 4.48606 20 9.99953 20C15.5139 20 20 15.5139 20 10.0005C20 4.48606 15.5139 0 9.99953 0Z" fill="#B3B3B3"/>
</svg>
