<svg width="20" height="20" viewBox="0 0 20 20" fill="none" xmlns="http://www.w3.org/2000/svg">
<path fill-rule="evenodd" clip-rule="evenodd" d="M18.8679 11.3028C18.8679 11.3811 18.8047 11.4443 18.7264 11.4443H17.8377C17.2972 11.4443 16.8113 11.7981 16.6311 12.3254C16.5462 12.5707 16.4491 12.8103 16.3349 13.0415C16.0887 13.5453 16.1811 14.1405 16.567 14.5245L17.1915 15.1453C17.2255 15.1792 17.233 15.2179 17.233 15.2453C17.233 15.2726 17.2264 15.3122 17.1924 15.3462L15.3462 17.1915C15.3113 17.2264 15.2717 17.2339 15.2453 17.2339C15.2189 17.2339 15.1792 17.2264 15.1453 17.1915L14.5236 16.5669C14.1406 16.1811 13.5443 16.0896 13.0396 16.3358C12.8104 16.449 12.5717 16.5471 12.3264 16.6302C11.7991 16.8113 11.4443 17.2971 11.4443 17.8386V18.7264C11.4443 18.8047 11.3802 18.8679 11.3019 18.8679H8.69716C8.61886 18.8679 8.55471 18.8047 8.55471 18.7264V17.8386C8.55471 17.2971 8.19999 16.8113 7.67169 16.6302C7.42735 16.5471 7.18867 16.449 6.95848 16.3358C6.77075 16.2434 6.56981 16.199 6.37169 16.199C6.03962 16.199 5.71603 16.3254 5.47547 16.5669L4.85471 17.1915C4.81981 17.2264 4.78018 17.2339 4.75377 17.2339C4.72735 17.2339 4.68773 17.2264 4.65377 17.1924L2.80848 15.3471C2.77264 15.3122 2.76698 15.2726 2.76698 15.2453C2.76698 15.2179 2.77358 15.1792 2.80848 15.1453L3.43396 14.5245C3.81792 14.1405 3.91131 13.5453 3.66414 13.0415C3.55094 12.8103 3.45282 12.5707 3.36792 12.3264C3.18773 11.799 2.70282 11.4443 2.16131 11.4443H1.27358C1.19528 11.4443 1.13113 11.3811 1.13113 11.3028V8.69714C1.13113 8.61978 1.19528 8.55563 1.27358 8.55563H2.16131C2.70282 8.55563 3.18773 8.20091 3.36792 7.6745C3.45282 7.42921 3.55094 7.18959 3.66414 6.9594C3.91131 6.45469 3.81792 5.8594 3.43301 5.47638L2.80848 4.85469C2.77358 4.82072 2.76698 4.78204 2.76698 4.75563C2.76698 4.72827 2.77264 4.68865 2.80754 4.65469L4.65377 2.80846C4.68773 2.77355 4.72735 2.76695 4.75377 2.76695C4.78018 2.76695 4.81981 2.77355 4.85471 2.80846L5.47641 3.43393C5.85943 3.81884 6.45377 3.91035 6.95943 3.66412C7.18867 3.55091 7.42735 3.4528 7.67264 3.36978C8.19999 3.18865 8.55471 2.70374 8.55471 2.16223V1.27355C8.55471 1.1962 8.61886 1.13204 8.69716 1.13204H11.3019C11.3802 1.13204 11.4443 1.1962 11.4443 1.27355V2.16223C11.4443 2.70374 11.7991 3.18865 12.3274 3.36978C12.5717 3.4528 12.8104 3.55091 13.0406 3.66412C13.5434 3.91223 14.1396 3.81789 14.5245 3.43299L15.1453 2.8094C15.1792 2.77355 15.2189 2.76695 15.2453 2.76695C15.2717 2.76695 15.3113 2.77355 15.3462 2.80846L17.1915 4.65374C17.2264 4.68865 17.233 4.72827 17.233 4.75563C17.233 4.78204 17.2255 4.82072 17.1915 4.85563L16.566 5.47638C16.1811 5.8594 16.0887 6.45469 16.3349 6.9594C16.4491 7.18959 16.5462 7.42921 16.6311 7.67355C16.8113 8.20091 17.2962 8.55563 17.8377 8.55563H18.7264C18.8047 8.55563 18.8679 8.61978 18.8679 8.69714V11.3028ZM18.7264 7.42358H17.8377C17.767 7.42358 17.7208 7.36321 17.7019 7.30566C17.6019 7.01604 17.4859 6.73302 17.3528 6.46038C17.3264 6.40849 17.3151 6.32925 17.3642 6.2783L17.9887 5.65849C18.2302 5.41887 18.3642 5.09906 18.3651 4.75849C18.366 4.41698 18.234 4.09623 17.9915 3.85377L16.1453 2.0066C15.9047 1.76698 15.5858 1.63491 15.2453 1.63491H15.2434C14.9028 1.63491 14.583 1.76887 14.3415 2.01038L13.7217 2.63491C13.6708 2.68585 13.5943 2.67547 13.5396 2.64811C13.266 2.51415 12.983 2.39717 12.6934 2.29811C12.6387 2.28019 12.5755 2.23302 12.5755 2.16226V1.27358C12.5755 0.571698 12.0047 0 11.3019 0H8.69717C7.99528 0 7.42359 0.571698 7.42359 1.27358V2.16226C7.42359 2.23302 7.36038 2.28019 7.3066 2.29811C7.01604 2.39717 6.73396 2.51415 6.46132 2.64811C6.40377 2.67453 6.32642 2.68396 6.2783 2.63491L5.65755 2.01038C5.41604 1.76887 5.09623 1.63491 4.75566 1.63491H4.75377C4.41415 1.63491 4.09434 1.76698 3.85377 2.00755L2.0066 3.85472C1.76509 4.09623 1.63302 4.41698 1.63396 4.75849C1.63491 5.09906 1.76887 5.41887 2.01038 5.65755L2.63396 6.2783C2.68491 6.32925 2.67264 6.40849 2.64717 6.46038C2.51321 6.73302 2.39717 7.01604 2.29811 7.3066C2.2783 7.36321 2.23208 7.42358 2.16132 7.42358H1.27358C0.570755 7.42358 0 7.99528 0 8.69717V11.3028C0 12.0057 0.570755 12.5764 1.27358 12.5764H2.16132C2.23208 12.5764 2.2783 12.6368 2.29811 12.6943C2.39717 12.9849 2.51321 13.2679 2.64717 13.5396C2.67264 13.5925 2.68491 13.6717 2.63491 13.7217L2.01038 14.3425C1.76887 14.5821 1.63491 14.9009 1.63396 15.2415C1.63302 15.583 1.76509 15.9038 2.00755 16.1462L3.85377 17.9934C4.09434 18.233 4.41415 18.3651 4.75377 18.3651H4.75566C5.09623 18.3651 5.41604 18.2311 5.65755 17.9896L6.27736 17.3651C6.32925 17.3151 6.4066 17.3255 6.46038 17.3528C6.73396 17.4868 7.01604 17.6028 7.30566 17.7019C7.36038 17.7208 7.42359 17.7679 7.42359 17.8387V18.7264C7.42359 19.4292 7.99528 20 8.69717 20H11.3019C12.0047 20 12.5755 19.4292 12.5755 18.7264V17.8387C12.5755 17.7679 12.6387 17.7208 12.6925 17.7019C12.983 17.6028 13.266 17.4868 13.5387 17.3528C13.5943 17.3245 13.6717 17.3151 13.7208 17.3651L14.3415 17.9896C14.583 18.2311 14.9028 18.3651 15.2434 18.3651H15.2453C15.5858 18.3651 15.9047 18.233 16.1453 17.9925L17.9925 16.1453C18.234 15.9038 18.366 15.583 18.3651 15.2415C18.3642 14.9009 18.2302 14.5821 17.9887 14.3425L17.3651 13.7217C17.3151 13.6717 17.3264 13.5925 17.3528 13.5396C17.4859 13.2679 17.6019 12.9849 17.7019 12.6943C17.7208 12.6368 17.767 12.5764 17.8377 12.5764H18.7264C19.4283 12.5764 19.9991 12.0057 19.9991 11.3028V8.69717C19.9991 7.99528 19.4283 7.42358 18.7264 7.42358ZM10 12.7358C8.49152 12.7358 7.26321 11.5085 7.26321 9.99998C7.26321 8.49149 8.49152 7.26413 10 7.26413C11.5076 7.26413 12.7359 8.49149 12.7359 9.99998C12.7359 11.5085 11.5076 12.7358 10 12.7358ZM10 6.13209C7.86698 6.13209 6.13207 7.86699 6.13207 10C6.13207 12.133 7.86698 13.8679 10 13.8679C12.1321 13.8679 13.867 12.133 13.867 10C13.867 7.86699 12.1321 6.13209 10 6.13209Z" fill="#B3B3B3"/>
</svg>
