<svg width="24" height="24" viewBox="0 0 24 24" fill="none" xmlns="http://www.w3.org/2000/svg">
<g clip-path="url(#clip0)">
<path d="M14.8281 9.17166C14.6331 8.97666 14.3161 8.97666 14.1211 9.17166C13.9261 9.36666 13.9261 9.68466 14.1211 9.87868C14.6871 10.4447 15.0001 11.1977 15.0001 11.9997C15.0001 13.6537 13.6541 14.9997 12.0001 14.9997C11.1982 14.9997 10.4452 14.6877 9.87914 14.1207C9.68414 13.9257 9.36713 13.9257 9.17213 14.1207C8.97713 14.3147 8.97713 14.6327 9.17213 14.8277C9.92611 15.5837 10.9311 15.9997 12.0001 15.9997C14.2061 15.9997 16.0001 14.2057 16.0001 11.9997C16.0001 10.9306 15.5841 9.92565 14.8281 9.17166Z" fill="#202020"/>
<path d="M12.697 8.0686C12.4699 8.02862 12.238 7.9996 12 7.9996C9.794 7.9996 8 9.7936 8 11.9996C8 12.2376 8.02902 12.4696 8.06998 12.6966C8.11297 12.9386 8.324 13.1096 8.561 13.1096C8.59001 13.1096 8.61898 13.1076 8.64898 13.1016C8.91997 13.0536 9.10198 12.7936 9.05398 12.5226C9.023 12.3526 8.99998 12.1796 8.99998 11.9996C8.99998 10.3456 10.346 8.99959 12 8.99959C12.18 8.99959 12.353 9.0226 12.523 9.0526C12.789 9.1066 13.054 8.91859 13.102 8.6476C13.15 8.37662 12.968 8.1166 12.697 8.0686Z" fill="#202020"/>
<path d="M23.8811 11.6767C23.7681 11.5427 21.0631 8.38568 17.3321 6.4527C17.0901 6.32571 16.7851 6.42171 16.6581 6.66771C16.5311 6.91273 16.6271 7.21469 16.8731 7.34172C19.7471 8.82972 22.0431 11.1517 22.8281 11.9997C21.6361 13.2907 16.9451 17.9997 12.0001 17.9997C10.3222 17.9997 8.63114 17.5947 6.97214 16.7947C6.72614 16.6737 6.42516 16.7787 6.30516 17.0277C6.18418 17.2757 6.28918 17.5747 6.53818 17.6947C8.33316 18.5617 10.1712 18.9997 12.0002 18.9997C18.1612 18.9997 23.6512 12.5957 23.8822 12.3227C24.0401 12.1367 24.0391 11.8637 23.8811 11.6767Z" fill="#202020"/>
<path d="M15.2806 5.57565C14.1426 5.19263 13.0386 4.99965 11.9996 4.99965C5.83855 4.99965 0.348563 11.4037 0.117564 11.6767C-0.0284515 11.8486 -0.0404515 12.0987 0.0895795 12.2857C0.158579 12.3847 1.81158 14.7316 4.67657 16.6347C4.76156 16.6917 4.85657 16.7187 4.95257 16.7187C5.11359 16.7187 5.27259 16.6407 5.36859 16.4937C5.52158 16.2647 5.45858 15.9537 5.22857 15.8016C3.12459 14.4027 1.68459 12.7137 1.14558 12.0267C2.29659 10.7767 7.01858 5.99968 11.9996 5.99968C12.9305 5.99968 13.9276 6.17569 14.9615 6.52266C15.2235 6.61665 15.5075 6.47166 15.5945 6.20865C15.6826 5.94666 15.5426 5.66368 15.2806 5.57565Z" fill="#202020"/>
<path d="M20.853 3.14669C20.658 2.95169 20.3409 2.95169 20.1459 3.14669L3.14601 20.1467C2.95101 20.3417 2.95101 20.6587 3.14601 20.8537C3.24402 20.9507 3.37199 20.9997 3.50001 20.9997C3.62802 20.9997 3.75599 20.9507 3.85302 20.8537L20.853 3.85371C21.048 3.65871 21.048 3.34169 20.853 3.14669Z" fill="#202020"/>
</g>
<defs>
<clipPath id="clip0">
<rect width="24" height="24" fill="white"/>
</clipPath>
</defs>
</svg>
