<svg width="24" height="24" viewBox="0 0 24 24" fill="none" xmlns="http://www.w3.org/2000/svg">
<path d="M13.332 7.3636C12.2658 7.3636 11.3984 8.15884 11.3984 9.13632C11.3984 10.1138 12.2658 10.909 13.332 10.909C14.3982 10.909 15.2656 10.1138 15.2656 9.13632C15.2656 8.15884 14.3982 7.3636 13.332 7.3636ZM13.332 9.72723C12.9766 9.72723 12.6875 9.46215 12.6875 9.13632C12.6875 8.8105 12.9766 8.54541 13.332 8.54541C13.6874 8.54541 13.9766 8.8105 13.9766 9.13632C13.9766 9.46215 13.6874 9.72723 13.332 9.72723Z" fill="#202020"/>
<path d="M18.4883 12.0908C17.4221 12.0908 16.5547 12.886 16.5547 13.8635C16.5547 14.841 17.4221 15.6362 18.4883 15.6362C19.5545 15.6362 20.4219 14.841 20.4219 13.8635C20.4219 12.886 19.5545 12.0908 18.4883 12.0908ZM18.4883 14.4544C18.1329 14.4544 17.8438 14.1893 17.8438 13.8635C17.8438 13.5377 18.1329 13.2726 18.4883 13.2726C18.8437 13.2726 19.1328 13.5377 19.1328 13.8635C19.1328 14.1893 18.8437 14.4544 18.4883 14.4544Z" fill="#202020"/>
<path d="M18.8458 7.46287C18.5497 7.28189 18.1495 7.35525 17.9521 7.62679L12.7958 14.7177C12.5984 14.9892 12.6784 15.3561 12.9746 15.5371C13.2707 15.7181 13.6709 15.6448 13.8684 15.3732L19.0246 8.2823C19.2221 8.01076 19.142 7.64389 18.8458 7.46287Z" fill="#202020"/>
<path d="M22.3555 5H1.64453C1.28858 5 1 5.26457 1 5.59091V9.13636C1 9.4627 1.28858 9.72727 1.64453 9.72727C2.71071 9.72727 3.57812 10.5225 3.57812 11.5C3.57812 12.4775 2.71071 13.2727 1.64453 13.2727C1.28858 13.2727 1 13.5373 1 13.8636V17.4091C1 17.7354 1.28858 18 1.64453 18H22.3555C22.7114 18 23 17.7354 23 17.4091V5.59091C23 5.26457 22.7114 5 22.3555 5ZM21.7109 16.8182H7.44531V16.2273C7.44531 15.9009 7.15673 15.6364 6.80078 15.6364C6.44483 15.6364 6.15625 15.9009 6.15625 16.2273V16.8182H2.28906V14.3952C3.75821 14.1207 4.86719 12.9268 4.86719 11.5C4.86719 10.0732 3.75821 8.87936 2.28906 8.60482V6.18182H6.20996V6.77273C6.20996 7.09907 6.49854 7.36364 6.85449 7.36364C7.21045 7.36364 7.49902 7.09907 7.49902 6.77273V6.18182H21.7109V16.8182Z" fill="#202020"/>
<path d="M6.80078 12.0908C6.44483 12.0908 6.15625 12.3554 6.15625 12.6817V13.8635C6.15625 14.1899 6.44483 14.4544 6.80078 14.4544C7.15673 14.4544 7.44531 14.1899 7.44531 13.8635V12.6817C7.44531 12.3554 7.15673 12.0908 6.80078 12.0908Z" fill="#202020"/>
<path d="M6.80078 8.54539C6.44483 8.54539 6.15625 8.80996 6.15625 9.1363V10.3181C6.15625 10.6445 6.44483 10.909 6.80078 10.909C7.15673 10.909 7.44531 10.6445 7.44531 10.3181V9.1363C7.44531 8.80996 7.15673 8.54539 6.80078 8.54539Z" fill="#202020"/>
</svg>
