<svg width="27" height="25" viewBox="0 0 27 25" fill="none" xmlns="http://www.w3.org/2000/svg">
<path d="M14.5 23C16.1397 22.0835 27 15.6803 27 7.00905C27 3.27534 23.9755 0 20.5268 0C18.1904 0.00419519 16.0368 1.28086 14.8889 3.34224C14.803 3.47516 14.6567 3.55509 14.5 3.55509C14.3433 3.55509 14.197 3.47516 14.1111 3.34224C12.9632 1.28086 10.8096 0.00419519 8.47321 0C5.02451 0 2 3.27534 2 7.00905C2 15.6803 12.8603 22.0835 14.5 23Z" fill="#DA8598"/>
<path d="M19.4196 0C17.0201 0.0037057 14.7723 1.17405 13.3929 3.13742C12.0135 1.17405 9.76563 0.0037057 7.36607 0C3.44195 0 0 3.65099 0 7.8125C0 11.8683 2.29013 16.0455 6.62319 19.8929C8.63081 21.6721 10.8331 23.2186 13.188 24.5037C13.3166 24.5699 13.4692 24.5699 13.5978 24.5037C15.9518 23.2186 18.1534 21.6718 20.1603 19.8929C24.4956 16.0455 26.7857 11.8683 26.7857 7.8125C26.7857 3.65099 23.3438 0 19.4196 0ZM13.3929 23.5995C11.7532 22.6946 0.892857 16.3731 0.892857 7.8125C0.892857 4.12641 3.91737 0.892857 7.36607 0.892857C9.70241 0.896999 11.8561 2.15737 13.004 4.19246C13.0899 4.32369 13.2361 4.4026 13.3929 4.4026C13.5496 4.4026 13.6959 4.32369 13.7817 4.19246C14.9296 2.15737 17.0833 0.896999 19.4196 0.892857C22.8683 0.892857 25.8929 4.12641 25.8929 7.8125C25.8929 16.3731 15.0325 22.6946 13.3929 23.5995Z" fill="#202020"/>
<path d="M23.1621 7.32148C23.1321 7.74248 22.7821 8.07148 22.3721 8.08248C22.1521 8.06148 21.9421 7.96248 21.8021 7.79248C21.6621 7.62248 21.5931 7.40148 21.6121 7.17248V7.14148C21.6121 6.44248 21.1831 5.81148 20.5421 5.57148C20.1221 5.42248 19.9021 4.96248 20.0421 4.54248C20.1921 4.12248 20.6421 3.90148 21.0521 4.04248C22.3431 4.53248 23.1921 5.80148 23.1621 7.20248V7.32148Z" fill="white"/>
</svg>
