<svg xmlns="http://www.w3.org/2000/svg" width="228.033" height="237.038" viewBox="0 0 228.033 237.038"><g transform="translate(-74.462 -223.462)"><path d="M122.977,0H15.9A7.886,7.886,0,0,0,8.011,7.883V121.751H0v16.583a8,8,0,0,0,8.011,7.993H122.868a8,8,0,0,0,8-7.993V7.883A7.886,7.886,0,0,0,122.977,0Z" transform="translate(116.158 242.966)" fill="#fff5f7"/><path d="M0,0H120.164" transform="translate(126.173 460.001)" fill="none" stroke="#202020" stroke-linecap="round" stroke-width="0.998"/><path d="M20.385,15.528l5.158-3.219a2.666,2.666,0,0,0-1.537-4.923l-6.076.269A2.708,2.708,0,0,1,15.546,6.41L12.323,1.257A2.669,2.669,0,0,0,7.395,2.792l.269,6.069a2.7,2.7,0,0,1-1.247,2.382L1.259,14.462A2.666,2.666,0,0,0,2.8,19.385l6.076-.269a2.708,2.708,0,0,1,2.385,1.246l3.223,5.152a2.669,2.669,0,0,0,4.929-1.535l-.269-6.069A2.659,2.659,0,0,1,20.385,15.528Z" transform="translate(75 224)" fill="#ecb7bb"/><path d="M19.138,17.91a2.7,2.7,0,0,1,1.247-2.382l5.158-3.219a2.666,2.666,0,0,0-1.537-4.923l-6.076.269A2.708,2.708,0,0,1,15.546,6.41L12.323,1.257A2.669,2.669,0,0,0,7.395,2.792l.269,6.069a2.7,2.7,0,0,1-1.247,2.382L1.259,14.462A2.666,2.666,0,0,0,2.8,19.385l6.076-.269a2.708,2.708,0,0,1,2.385,1.246l3.223,5.152a2.669,2.669,0,0,0,4.929-1.535" transform="translate(75 224)" fill="none" stroke="#202020" stroke-linecap="round" stroke-width="0.998"/><path d="M0,0V53.6" transform="translate(96.174 359.666)" fill="none" stroke="#202020" stroke-linecap="round" stroke-width="0.998"/><path d="M0,0V24.615" transform="translate(121.255 403.813)" fill="none" stroke="#202020" stroke-linecap="round" stroke-width="0.998"/><path d="M0,0V18.158" transform="translate(260.915 394.736)" fill="none" stroke="#202020" stroke-linecap="round" stroke-width="0.998"/><path d="M0,0V7.913" transform="translate(241.14 404.98)" fill="none" stroke="#202020" stroke-linecap="round" stroke-width="0.998"/><path d="M122.868,24.575H8.011A8,8,0,0,1,0,16.583V0H114.856V16.583A8,8,0,0,0,122.868,24.575Z" transform="translate(116.158 364.719)" fill="none" stroke="#202020" stroke-linecap="round" stroke-width="0.998"/><path d="M122.858,7.883V138.334a8.007,8.007,0,0,1-16.013,0V121.751H0V7.883A7.886,7.886,0,0,1,7.892,0H114.966A7.886,7.886,0,0,1,122.858,7.883Z" transform="translate(124.168 242.966)" fill="none" stroke="#202020" stroke-linecap="round" stroke-width="0.998"/><path d="M0,0H35.838" transform="translate(168.336 255.294)" fill="none" stroke="#202020" stroke-linecap="round" stroke-width="0.998"/><path d="M0,0H45.276" transform="translate(163.619 260.267)" fill="none" stroke="#202020" stroke-linecap="round" stroke-width="0.998"/><path d="M0,0H35.838" transform="translate(168.336 265.24)" fill="none" stroke="#202020" stroke-linecap="round" stroke-width="0.998"/><path d="M0,0H29.342" transform="translate(138.996 284.065)" fill="none" stroke="#202020" stroke-linecap="round" stroke-width="0.998"/><path d="M0,0H29.342" transform="translate(138.996 303.987)" fill="none" stroke="#202020" stroke-linecap="round" stroke-width="0.998"/><path d="M0,0H21.83" transform="translate(138.996 294.021)" fill="none" stroke="#202020" stroke-linecap="round" stroke-width="0.998"/><path d="M0,0H29.342" transform="translate(138.996 314.461)" fill="none" stroke="#202020" stroke-linecap="round" stroke-width="0.998"/><path d="M0,0H29.342" transform="translate(138.996 334.383)" fill="none" stroke="#202020" stroke-linecap="round" stroke-width="0.998"/><path d="M0,0H21.83" transform="translate(138.996 324.427)" fill="none" stroke="#202020" stroke-linecap="round" stroke-width="0.998"/><path d="M35.572,60.476c-2.654.159-4.081-.229-6.415-2.212C20.178,50.63,10.191,41.969,1.3,34.116c-1.726-1.525-1.626-2.98-.339-4.634,2.045-2.621,5.048-6.089,7.373-8.491,1.467-1.515,2.853-1.794,4.639-.319,7.034,5.83,14.357,12.487,21.471,18.5C46.228,26.642,58.111,13.557,69.834,1.23c1.626-1.7,3.023-1.515,4.649-.179a110.61,110.61,0,0,1,8.241,7.644c1.457,1.5,1.756,2.92.17,4.644C69.525,27.878,55.227,43.245,41.768,57.576A7.636,7.636,0,0,1,35.572,60.476Z" transform="translate(204.969 274.265)" fill="#ecb7bb"/><path d="M10.285,34.013c-2.794-2.6-6.405-5.352-9.029-7.913C-.3,24.575-.41,23.13.927,21.466c2.115-2.631,5.038-6.089,7.383-8.491,1.487-1.515,2.853-1.794,4.639-.319,7.074,5.79,14.277,12.567,21.541,18.437,4.24-4.524,11.843-12.716,15.275-16.414s2.744-2.95,5.388-5.79S60.679,2.94,63.423,0" transform="translate(204.994 282.281)" fill="none" stroke="#202020" stroke-linecap="round" stroke-linejoin="round" stroke-width="0.998"/><path d="M58.865,0c.938,1.585,1.656,2.92.05,4.654C45.426,19.234,31.248,34.531,17.749,48.912c-2.165,2.3-3.582,2.621-6.186,2.91s-4.24-.618-6.385-2.173C3.632,48.523,1.616,46.46,0,45.214" transform="translate(228.988 282.94)" fill="none" stroke="#202020" stroke-linecap="round" stroke-linejoin="round" stroke-width="0.998"/><path d="M17.54,0Q8.77,9.687,0,19.363" transform="translate(257.314 309.856)" fill="none" stroke="#202020" stroke-linecap="round" stroke-linejoin="round" stroke-width="0.998"/><path d="M18.328,17.968l5.807-.618a2.552,2.552,0,0,0,.738-4.883l-5.358-2.312a2.556,2.556,0,0,1-1.527-2.073l-.619-5.8a2.556,2.556,0,0,0-4.889-.737L10.167,6.9A2.558,2.558,0,0,1,8.092,8.421l-5.807.618a2.552,2.552,0,0,0-.738,4.883L6.9,16.234a2.555,2.555,0,0,1,1.527,2.073l.619,5.8a2.556,2.556,0,0,0,4.889.737l2.315-5.352A2.544,2.544,0,0,1,18.328,17.968Z" transform="translate(275.58 354.055)" fill="#fff5f7"/><path d="M17.949,8.083,17.4,2.3a2.547,2.547,0,0,0-4.859-.8l-2.365,5.3A2.541,2.541,0,0,1,8.092,8.3L2.305,8.85a2.543,2.543,0,0,0-.8,4.853" transform="translate(275.721 354.126)" fill="none" stroke="#202020" stroke-linecap="round" stroke-width="0.998"/><path d="M0,5.9A2.538,2.538,0,0,1,1.5,7.983l.549,5.78a2.547,2.547,0,0,0,4.859.8l2.365-5.3a2.541,2.541,0,0,1,2.085-1.495l5.787-.548a2.543,2.543,0,0,0,.8-4.853L12.631,0" transform="translate(282.535 364.311)" fill="none" stroke="#202020" stroke-linecap="round" stroke-width="0.998"/></g></svg>